HIERARCHY
ROOT Hips
{
	OFFSET 0.00000 0.00000 0.00000
	CHANNELS 6 Xposition Yposition Zposition Zrotation Yrotation Xrotation 
	JOINT LHipJoint
	{
		OFFSET 0 0 0
		CHANNELS 3 Zrotation Yrotation Xrotation
		JOINT LeftHip
		{
			OFFSET 1.57358 -1.76629 0.73362
			CHANNELS 3 Zrotation Yrotation Xrotation
			JOINT LeftKnee
			{
				OFFSET 2.40600 -6.61045 0.00000
				CHANNELS 3 Zrotation Yrotation Xrotation
				JOINT LeftAnkle
				{
					OFFSET 2.66168 -7.31291 0.00000
					CHANNELS 3 Zrotation Yrotation Xrotation
					JOINT LeftToe
					{
						OFFSET 0.20870 -0.57341 2.12506
						CHANNELS 3 Zrotation Yrotation Xrotation
						End Site
						{
							OFFSET 0.00000 -0.00000 1.10557
						}
					}
				}
			}
		}
	}
	JOINT RHipJoint
	{
		OFFSET 0 0 0
		CHANNELS 3 Zrotation Yrotation Xrotation
		JOINT RightHip
		{
			OFFSET -1.49299 -1.76629 0.73362
			CHANNELS 3 Zrotation Yrotation Xrotation
			JOINT RightKnee
			{
				OFFSET -2.43663 -6.69460 0.00000
				CHANNELS 3 Zrotation Yrotation Xrotation
				JOINT RightAnkle
				{
					OFFSET -2.62959 -7.22474 0.00000
					CHANNELS 3 Zrotation Yrotation Xrotation
					JOINT RightToe
					{
						OFFSET -0.25784 -0.70841 2.21862
						CHANNELS 3 Zrotation Yrotation Xrotation
						End Site
						{
							OFFSET -0.00000 -0.00000 1.16452
						}
					}
				}
			}
		}
	}
	JOINT lowerback
	{
		OFFSET 0 0 0
		CHANNELS 3 Zrotation Yrotation Xrotation
		JOINT Chest
		{
			OFFSET -0.00034 2.12399 -0.25450
			CHANNELS 3 Zrotation Yrotation Xrotation
			JOINT Chest2
			{
				OFFSET 0.05594 2.14379 -0.03318
				CHANNELS 3 Zrotation Yrotation Xrotation
				JOINT lowerneck
				{
					OFFSET 0 0 0
					CHANNELS 3 Zrotation Yrotation Xrotation
					JOINT Neck
					{
						OFFSET -0.09835 1.62725 0.24211
						CHANNELS 3 Zrotation Yrotation Xrotation
						JOINT Head
						{
							OFFSET 0.10849 1.66041 -0.22648
							CHANNELS 3 Zrotation Yrotation Xrotation
							End Site
							{
								OFFSET 0.04385 1.68267 -0.10541
							}
						}
					}
				}
				JOINT LeftCollar
				{
					OFFSET 0 0 0
					CHANNELS 3 Zrotation Yrotation Xrotation
					JOINT LeftShoulder
					{
						OFFSET 3.29108 0.79398 -0.68179
CHANNELS 3 Zrotation Xrotation Yrotation
						JOINT LeftElbow
						{
OFFSET 0 -5.153100 -0.000000
CHANNELS 3 Zrotation Xrotation Yrotation
							JOINT LeftWrist
							{
OFFSET 0 -3.751380 -0.000000
CHANNELS 3 Zrotation Xrotation Yrotation
								JOINT lhand
								{
									OFFSET 0 0 0
CHANNELS 3 Zrotation Xrotation Yrotation
									JOINT LFingers
									{
OFFSET 0 -0.529170 0.000000
CHANNELS 3 Zrotation Xrotation Yrotation
										End Site
										{
OFFSET 0 -0.426630 0.000000
										}
									}
								}
								JOINT LThumb
								{
OFFSET 0 0.000000 0.000000
CHANNELS 3 Zrotation Xrotation Yrotation
									End Site
									{
OFFSET 0 -0.433150 0.433150
									}
								}
							}
						}
					}
				}
				JOINT RightCollar
				{
					OFFSET 0 0 0
					CHANNELS 3 Zrotation Yrotation Xrotation
					JOINT RightShoulder
					{
						OFFSET -3.07414 1.06285 -0.44338
CHANNELS 3 Zrotation Xrotation Yrotation
						JOINT RightElbow
						{
OFFSET 0 -5.296130 0.000000
CHANNELS 3 Zrotation Xrotation Yrotation
							JOINT RightWrist
							{
OFFSET 0 -3.761440 -0.000000
CHANNELS 3 Zrotation Xrotation Yrotation
								JOINT rhand
								{
									OFFSET 0 0 0
CHANNELS 3 Zrotation Xrotation Yrotation
									JOINT RFingers
									{
OFFSET 0 -0.747320 0.000000
CHANNELS 3 Zrotation Xrotation Yrotation
										End Site
										{
OFFSET 0 -0.602510 0.000000
										}
									}
								}
								JOINT RThumb
								{
OFFSET 0 0.000000 0.000000
CHANNELS 3 Zrotation Xrotation Yrotation
									End Site
									{
OFFSET 0 -0.611710 0.611710
									}
								}
							}
						}
					}
				}
			}
		}
	}
}
MOTION
Frames: 5
Frame Time: .0083333
-0.3663 16.7207 11.4799 3.2964 0.0300 4.9018 0.0000 0.0000 0.0000 -28.2606 -6.8808 -14.4017 5.5437 13.9710 43.1216 1.3764 -2.4776 -21.5081 0.5212 -4.6270 -12.8477 0.0000 0.0000 0.0000 9.2312 -1.7799 -24.4841 -25.9926 -19.1163 107.7730 -0.3323 -6.4475 10.5406 -0.2751 -3.3736 9.3207 -4.8636 0.4613 10.1373 0.5296 0.0576 -0.5486 3.2920 0.1983 -6.2854 -9.4526 -4.9155 -21.9394 10.3371 -5.8244 14.4051 4.2739 -2.1984 8.6898 -0.0000 -0.0000 0.0000 2.1433 9.8163 -40.4592 122.1252 -55.7165 87.4212 15.0051 -24.753 -6.6614 0.0 0.0 0.0 -7.1250 0.0 0.0 -9.9179 36.7145 -2.0459 -0.0000 -0.0000 0.0000 -4.2028 27.858 36.238 -115.1864 -57.4618 -81.6262 -13.9882 -12.7918 -26.1175 0.0 0.0 0.0 7.1250 0.0 -0.0 9.5479 3.4928 9.0775
-0.3652 16.7544 12.0431 3.5786 -0.2213 5.0798 0.0000 0.0000 0.0000 -28.8399 -6.0509 -12.0781 5.3249 13.7406 42.2082 1.3195 -2.5013 -21.0388 0.7242 -5.4376 -15.1609 0.0000 0.0000 0.0000 8.6849 -1.5883 -27.7920 -26.0519 -19.0982 107.9540 -0.2556 -5.7014 9.2500 -0.1640 -2.6087 7.1912 -5.1475 0.3064 9.8627 0.6012 -0.1658 -0.6629 3.5611 0.1001 -6.2303 -9.3726 -4.7779 -21.9125 9.9102 -5.5800 14.4788 4.1481 -2.1240 8.6655 -0.0000 0.0000 0.0000 1.8341 8.0285 -40.5765 124.1378 -55.1025 89.078 14.3315 -25.7171 -6.5657 0.0 0.0 0.0 -7.1250 0.0 0.0 -10.4629 36.5781 -2.1967 -0.0000 0.0000 0.0000 -4.0391 29.4172 35.5986 -115.6810 -57.3551 -82.0429 -13.5774 -13.219 -26.5041 0.0 0.0 0.0 7.1250 0.0 -0.0 9.8190 3.1635 9.4034
-0.3603 16.7931 12.6304 3.6696 -1.0642 4.7147 0.0000 0.0000 0.0000 -29.2938 -4.4563 -9.3080 5.0643 13.4559 41.0998 1.2214 -2.2701 -20.2646 0.9628 -6.2476 -17.5044 0.0000 0.0000 0.0000 8.6301 -0.6196 -30.1163 -25.8922 -19.1464 107.4666 -0.1881 -5.0204 7.9595 -0.0985 -2.0241 5.5723 -5.2336 0.3603 9.8923 0.6725 -0.1018 -0.6712 3.6760 0.1367 -6.2626 -9.1996 -4.6176 -21.7212 9.3701 -5.3273 14.5918 3.9698 -2.0564 8.6208 -0.0000 -0.0000 0.0000 1.6041 6.5055 -40.6799 126.4140 -54.3432 90.9364 14.4944 -26.6214 -6.8507 0.0 0.0 0.0 -7.1250 0.0 0.0 -10.3742 36.8766 -2.1008 -0.0000 -0.0000 0.0000 -3.9277 31.0778 35.1617 -116.4609 -57.1815 -82.699 -13.4799 -14.2362 -26.8857 0.0 0.0 0.0 7.1250 0.0 -0.0 9.9015 2.7966 9.5523
-0.3752 16.8550 13.1908 3.4300 -1.3002 4.9460 0.0000 0.0000 0.0000 -29.1163 -3.5316 -7.0808 4.7224 13.0642 39.6094 1.0053 -2.1373 -18.3532 1.4394 -7.5849 -21.4603 0.0000 0.0000 0.0000 9.1694 -0.0932 -33.3328 -25.5788 -19.2368 106.5132 -0.1238 -4.2337 6.4913 -0.0548 -1.5106 4.1550 -5.1795 0.1761 9.7887 0.9613 -0.3204 -0.8324 3.9843 0.0389 -6.3513 -9.0815 -4.3639 -21.6181 8.9138 -4.9232 14.4729 3.8482 -1.9103 8.5042 -0.0000 -0.0000 0.0000 1.2574 5.0924 -40.6137 128.9400 -53.4142 92.977 14.7262 -27.2728 -7.4111 0.0 0.0 0.0 -7.1250 0.0 0.0 -10.2744 37.4596 -1.9314 -0.0000 -0.0000 0.0000 -4.1215 32.2529 35.0384 -117.1153 -57.0309 -83.2484 -13.4293 -15.5372 -27.0586 0.0 0.0 0.0 7.1250 0.0 -0.0 9.9428 2.6316 9.6237
-0.3894 16.9312 13.7585 3.8725 -0.5984 5.3951 0.0000 0.0000 0.0000 -29.5070 -3.3275 -4.8807 4.3762 12.6448 38.0531 0.7467 -2.5172 -15.6656 1.9151 -8.6870 -24.8209 0.0000 0.0000 0.0000 8.9373 -0.7535 -36.5034 -25.0919 -19.3667 105.0404 -0.0657 -3.0065 4.7099 -0.0231 -0.9823 2.7000 -5.6272 -0.3639 9.4969 1.1251 -1.0718 -1.0725 4.5202 -0.3061 -6.3505 -9.0648 -3.9841 -21.4557 8.6282 -4.3576 14.3749 3.8253 -1.6768 8.3794 0.0000 0.0000 0.0000 0.8291 3.8639 -40.3254 131.4251 -52.4043 94.9595 14.2297 -28.2017 -7.1878 0.0 0.0 0.0 -7.1250 0.0 0.0 -10.6520 37.2019 -2.0726 0.0000 0.0000 0.0000 -4.4942 33.2703 35.0988 -117.7643 -56.8768 -83.7925 -13.2911 -16.9874 -27.2043 0.0 0.0 0.0 7.1250 0.0 -0.0 10.0344 2.5057 9.7386
